<svg id="ImportedIcons" xmlns="http://www.w3.org/2000/svg" width="96" height="96" viewBox="0 0 96 96">
  <defs>
    <style>
      .cls-1 {
        fill: #b3b3b3;
      }
    </style>
  </defs>
  <path class="cls-1" d="M68.734,40.234H68.72a6.481,6.481,0,0,0-4.62,1.932,6.618,6.618,0,0,0,4.612,11.286h.014a6.478,6.478,0,0,0,4.625-1.931A6.619,6.619,0,0,0,68.74,40.234Zm3.192,9.877a4.454,4.454,0,0,1-3.216,1.341,4.618,4.618,0,0,1-3.2-7.876,4.36,4.36,0,0,1,3.217-1.342,4.619,4.619,0,0,1,3.2,7.877Z"/>
  <path class="cls-1" d="M24.5,21.5A1.5,1.5,0,0,0,26,20V19l44-.013V20a1.5,1.5,0,0,0,3,0v-.5A3.65,3.65,0,0,0,69.5,16h-43A3.65,3.65,0,0,0,23,19.5V20A1.5,1.5,0,0,0,24.5,21.5Z"/>
  <path class="cls-1" d="M81.5,32h-67A3.5,3.5,0,0,0,11,35.5v39A3.5,3.5,0,0,0,14.5,78h67A3.5,3.5,0,0,0,85,74.5v-39A3.5,3.5,0,0,0,81.5,32Zm-67,43a.5.5,0,0,1-.5-.5V66.451L30.564,49.787a1.34994,1.34994,0,0,1,.964-.4h0a1.354,1.354,0,0,1,.968.408L57.468,75Zm45.784,0-7.178-7.246,5.583-5.91a1.356,1.356,0,0,1,.962-.381h0a1.361,1.361,0,0,1,.965.384L73.537,75ZM82,74.5a.5.5,0,0,1-.5.5H76.34L62.045,60.445a3.374,3.374,0,0,0-2.388-.982h-.006a3.381,3.381,0,0,0-2.4.99L51.7,66.332,33.921,48.387a3.338,3.338,0,0,0-2.387-1h-.006a3.338,3.338,0,0,0-2.383.992L14,63.614V35.5a.5.5,0,0,1,.5-.5h67a.5.5,0,0,1,.5.5Z"/>
  <path class="cls-1" d="M18.5,30.5A1.5,1.5,0,0,0,20,29h0V26H76v3a1.5,1.5,0,0,0,3,0h0V26.5A3.372,3.372,0,0,0,75.782,23H20.218A3.372,3.372,0,0,0,17,26.5V29a1.5,1.5,0,0,0,1.5,1.5Z"/>
</svg>
