<svg id="ImportedIcons" xmlns="http://www.w3.org/2000/svg" width="96" height="96" viewBox="0 0 96 96">
  <defs>
    <style>
      .cls-1 {
        fill: #b3b3b3;
      }
    </style>
  </defs>
  <path class="cls-1" d="M78.06,67.73,72.125,44a3.5,3.5,0,0,0-3.4-2.651H54.271a1.5,1.5,0,0,0,0,3H68.73a.5.5,0,0,1,.485.379L75.15,68.46a.5.5,0,0,1-.485.621H20.455a.5.5,0,0,1-.485-.622L25.9,44.727a.5.5,0,0,1,.485-.379H41.151a1.5,1.5,0,0,0,0-3H26.39A3.5,3.5,0,0,0,22.994,44L17.06,67.73a3.5,3.5,0,0,0,3.4,4.349H74.665a3.5,3.5,0,0,0,3.4-4.349Z"/>
  <path class="cls-1" d="M37.515,28.148a1.5,1.5,0,0,0,1.049-.428L46,20.474V54.517a1.5,1.5,0,0,0,3,0V20.436l7.436,7.282a1.50056,1.50056,0,0,0,2.1-2.144h0l-8.913-8.729a3.046,3.046,0,0,0-4.241,0l-8.916,8.73a1.5,1.5,0,0,0,1.049,2.572Z"/>
</svg>
