<svg id="ImportedIcons" xmlns="http://www.w3.org/2000/svg" width="96" height="96" viewBox="0 0 96 96">
  <defs>
    <style>
      .cls-1 {
        fill: #b3b3b3;
      }
    </style>
  </defs>
  <path class="cls-1" d="M46,39H40a1,1,0,0,0,0,2h6a1,1,0,0,0,0-2Z"/>
  <path class="cls-1" d="M14,21H8a1,1,0,0,0,0,2h6a1,1,0,0,0,0-2Z"/>
  <path class="cls-1" d="M90.5,34H62V19.5A3.5,3.5,0,0,0,58.5,16H5.5A3.5,3.5,0,0,0,2,19.5v36A3.5,3.5,0,0,0,5.5,59H34V73.5A3.5,3.5,0,0,0,37.5,77h53A3.5,3.5,0,0,0,94,73.5v-36A3.5,3.5,0,0,0,90.5,34ZM91,73.5a.5.5,0,0,1-.5.5h-53a.5.5,0,0,1-.5-.5V59H58.5A3.5,3.5,0,0,0,62,55.5v-14a1.5,1.5,0,0,0-3,0v14a.5.5,0,0,1-.5.5H5.5a.5.5,0,0,1-.5-.5v-36a.5.5,0,0,1,.5-.5h53a.5.5,0,0,1,.5.5V34H37.5A3.5,3.5,0,0,0,34,37.5v14a1.5,1.5,0,0,0,3,0v-14a.5.5,0,0,1,.5-.5h53a.5.5,0,0,1,.5.5Z"/>
</svg>
